# xmcd
#
# Track frame offsets:
#  150
#  19434
#  36214
#  52458
#  66215
#  81047
#  96540
#  119979
#  136326
#  155829
#  165768
#  187552
#
# Disc length: 2772 seconds
#
# Revision: 0
# Processed by: cddbd v1.5.1PL0 Copyright (c) Steve Scherf et al.
# Submitted via: Collectorz.com_Music_Collector 6.9
#
DISCID=aa0ad20c
DTITLE=Henry Correy - Prisoner Of Desire
DYEAR=2005
DGENRE=Blues -  Blues Electric
TTITLE0=Standin' Here Alone
TTITLE1=Hooked On You
TTITLE2=Did I Ask Too Much
TTITLE3=Without Love
TTITLE4=Tiger Jump
TTITLE5=We Don't Talk
TTITLE6=Do You Remember
TTITLE7=Mystery
TTITLE8=Better Off Alone
TTITLE9=Poke In The Eye
TTITLE10=Sweet As Honey
TTITLE11=Prisoner Of Desire
EXTD=
EXTT0=
EXTT1=
EXTT2=
EXTT3=
EXTT4=
EXTT5=
EXTT6=
EXTT7=
EXTT8=
EXTT9=
EXTT10=
EXTT11=
PLAYORDER=
